<svg width="12" height="16" viewBox="0 0 12 16" fill="none" xmlns="http://www.w3.org/2000/svg">
<path d="M6 0.5C9.31697 0.5 12 3.15665 12 6.45585C12 7.94851 11.4422 9.30197 10.5327 10.3498L10.2943 10.6546L7.25876 14.0765L7.0171 14.3838L6.01738 15.5L5.03338 14.3854L4.79421 14.0765L1.848 10.7617C1.84005 10.7534 1.83177 10.7454 1.82317 10.7378C1.80828 10.7238 1.78924 10.7024 1.76193 10.6752C1.2034 10.1223 0.760194 9.46501 0.457814 8.74104C0.155433 8.01706 -0.000154579 7.24072 1.15241e-07 6.45667C1.15241e-07 3.15665 2.68303 0.500824 6 0.500824V0.5ZM6.00166 3.55618C5.22843 3.5577 4.4873 3.86413 3.94055 4.40836C3.39379 4.9526 3.08595 5.6903 3.08441 6.45996C3.08594 7.22978 3.39373 7.96765 3.94044 8.51215C4.48715 9.05665 5.22827 9.36344 6.00166 9.3654C6.77519 9.36344 7.51648 9.0567 8.06346 8.51225C8.61043 7.9678 8.91858 7.22993 8.92055 6.45996C8.9188 5.69001 8.61069 4.9521 8.06364 4.40773C7.5166 3.86336 6.77518 3.55688 6.00166 3.55536V3.55618ZM6.00166 4.37995C6.2764 4.37908 6.5486 4.43228 6.80261 4.53648C7.05663 4.64068 7.28745 4.79383 7.4818 4.98713C7.67615 5.18043 7.83019 5.41006 7.93508 5.66282C8.03996 5.91559 8.09362 6.18649 8.09297 6.45996C8.09373 6.73355 8.04016 7.00458 7.93533 7.25748C7.8305 7.51038 7.67649 7.74017 7.48214 7.93362C7.28779 8.12707 7.05694 8.28038 6.80287 8.38472C6.54879 8.48907 6.27651 8.54239 6.00166 8.54163C5.72692 8.54228 5.45475 8.48887 5.20082 8.38447C4.94689 8.28007 4.71619 8.12673 4.522 7.93328C4.3278 7.73983 4.17394 7.51007 4.06925 7.25723C3.96457 7.00439 3.91113 6.73344 3.912 6.45996C3.91102 6.1865 3.96439 5.91554 4.06905 5.6627C4.1737 5.40985 4.32757 5.18011 4.5218 4.9867C4.71603 4.79329 4.94678 4.64004 5.20075 4.53576C5.45473 4.43149 5.72692 4.37825 6.00166 4.37913V4.37995Z" fill="white"/>
</svg>
